{
 "cells": [
  {
   "cell_type": "markdown",
   "id": "90300898",
   "metadata": {},
   "source": [
    "# MLbriefs: ByteTrack"
   ]
  },
  {
   "cell_type": "code",
   "execution_count": 2,
   "id": "0f3e2414",
   "metadata": {},
   "outputs": [
    {
     "name": "stdout",
     "output_type": "stream",
     "text": [
      "ByteTrack  ByteTrack.ipynb  ipol.txt  MLbrief_ByteTrack.ipynb  requirements.txt\r\n"
     ]
    }
   ],
   "source": [
    "!ls"
   ]
  },
  {
   "cell_type": "code",
   "execution_count": 3,
   "id": "89dd0768",
   "metadata": {},
   "outputs": [
    {
     "name": "stdout",
     "output_type": "stream",
     "text": [
      "/home/abenmabrouk/Documents/Projects/MOT/MLbriefs/ByteTrack/ByteTrack\n"
     ]
    }
   ],
   "source": [
    "%cd ByteTrack"
   ]
  },
  {
   "cell_type": "code",
   "execution_count": 4,
   "id": "00f3709d",
   "metadata": {},
   "outputs": [
    {
     "name": "stdout",
     "output_type": "stream",
     "text": [
      "assets\t    log.txt\t\t       out7.webm\t setup.py\r\n",
      "build\t    MLbrief_ByteTrack_demo.sh  out8.webm\t tools\r\n",
      "datasets    out2.webm\t\t       out.webm\t\t tutorials\r\n",
      "deploy\t    out3.webm\t\t       pretrained\t videos\r\n",
      "Dockerfile  out4.webm\t\t       README.md\t yolox\r\n",
      "exps\t    out5.webm\t\t       requirements.txt  yolox.egg-info\r\n",
      "LICENSE     out6.webm\t\t       setup.cfg\t YOLOX_outputs\r\n"
     ]
    }
   ],
   "source": [
    "!ls"
   ]
  },
  {
   "cell_type": "code",
   "execution_count": 15,
   "id": "3265c4c9",
   "metadata": {},
   "outputs": [
    {
     "name": "stdout",
     "output_type": "stream",
     "text": [
      "found=YOLOX_outputs/yolox_x_mix_det/track_vis/2022_04_05_15_28_01/MOT17-02-DPM_lf_2.mp4\n",
      "ffmpeg version n5.0 Copyright (c) 2000-2022 the FFmpeg developers\n",
      "  built with gcc 11.2.0 (GCC)\n",
      "  configuration: --prefix=/usr --disable-debug --disable-static --disable-stripping --enable-amf --enable-avisynth --enable-cuda-llvm --enable-lto --enable-fontconfig --enable-gmp --enable-gnutls --enable-gpl --enable-ladspa --enable-libaom --enable-libass --enable-libbluray --enable-libdav1d --enable-libdrm --enable-libfreetype --enable-libfribidi --enable-libgsm --enable-libiec61883 --enable-libjack --enable-libmfx --enable-libmodplug --enable-libmp3lame --enable-libopencore_amrnb --enable-libopencore_amrwb --enable-libopenjpeg --enable-libopus --enable-libpulse --enable-librav1e --enable-librsvg --enable-libsoxr --enable-libspeex --enable-libsrt --enable-libssh --enable-libsvtav1 --enable-libtheora --enable-libv4l2 --enable-libvidstab --enable-libvmaf --enable-libvorbis --enable-libvpx --enable-libwebp --enable-libx264 --enable-libx265 --enable-libxcb --enable-libxml2 --enable-libxvid --enable-libzimg --enable-nvdec --enable-nvenc --enable-shared --enable-version3\n",
      "  libavutil      57. 17.100 / 57. 17.100\n",
      "  libavcodec     59. 18.100 / 59. 18.100\n",
      "  libavformat    59. 16.100 / 59. 16.100\n",
      "  libavdevice    59.  4.100 / 59.  4.100\n",
      "  libavfilter     8. 24.100 /  8. 24.100\n",
      "  libswscale      6.  4.100 /  6.  4.100\n",
      "  libswresample   4.  3.100 /  4.  3.100\n",
      "  libpostproc    56.  3.100 / 56.  3.100\n",
      "Input #0, mov,mp4,m4a,3gp,3g2,mj2, from 'YOLOX_outputs/yolox_x_mix_det/track_vis/2022_04_05_15_28_01/MOT17-02-DPM_lf_2.mp4':\n",
      "  Metadata:\n",
      "    major_brand     : isom\n",
      "    minor_version   : 512\n",
      "    compatible_brands: isomiso2mp41\n",
      "    encoder         : Lavf58.45.100\n",
      "  Duration: 00:00:20.00, start: 0.000000, bitrate: 1000 kb/s\n",
      "  Stream #0:0[0x1](und): Video: mpeg4 (Simple Profile) (mp4v / 0x7634706D), yuv420p, 960x540 [SAR 1:1 DAR 16:9], 1000 kb/s, 2 fps, 2 tbr, 16384 tbn (default)\n",
      "    Metadata:\n",
      "      handler_name    : VideoHandler\n",
      "      vendor_id       : [0][0][0][0]\n",
      "Stream mapping:\n",
      "  Stream #0:0 -> #0:0 (mpeg4 (native) -> vp9 (libvpx-vp9))\n",
      "Press [q] to stop, [?] for help\n",
      "\u001b[1;36m[libvpx-vp9 @ 0x55be18f03140] \u001b[0mv1.11.0\n",
      "\u001b[1;36m[libvpx-vp9 @ 0x55be18f03140] \u001b[0m\u001b[0;33mNeither bitrate nor constrained quality specified, using default CRF of 32\n",
      "\u001b[0mOutput #0, mp4, to 'output1_n_n.mp4':\n",
      "  Metadata:\n",
      "    major_brand     : isom\n",
      "    minor_version   : 512\n",
      "    compatible_brands: isomiso2mp41\n",
      "    encoder         : Lavf59.16.100\n",
      "  Stream #0:0(und): Video: vp9 (vp09 / 0x39307076), yuv420p(progressive), 960x540 [SAR 1:1 DAR 16:9], q=2-31, 2 fps, 16384 tbn (default)\n",
      "    Metadata:\n",
      "      handler_name    : VideoHandler\n",
      "      vendor_id       : [0][0][0][0]\n",
      "      encoder         : Lavc59.18.100 libvpx-vp9\n",
      "    Side data:\n",
      "      cpb: bitrate max/min/avg: 0/0/0 buffer size: 0 vbv_delay: N/A\n",
      "frame=   40 fps=5.0 q=0.0 Lsize=     763kB time=00:00:19.50 bitrate= 320.4kbits/s speed=2.44x    \n",
      "video:762kB audio:0kB subtitle:0kB other streams:0kB global headers:0kB muxing overhead: 0.127051%\n"
     ]
    }
   ],
   "source": [
    "!sh MLbrief_ByteTrack_demo.sh ./videos/MOT17-02-DPM_lf_2.mp4 output10.mp4"
   ]
  },
  {
   "cell_type": "code",
   "execution_count": null,
   "id": "63cba6b7",
   "metadata": {},
   "outputs": [],
   "source": []
  }
 ],
 "metadata": {
  "kernelspec": {
   "display_name": "Python 3",
   "language": "python",
   "name": "python3"
  },
  "language_info": {
   "codemirror_mode": {
    "name": "ipython",
    "version": 3
   },
   "file_extension": ".py",
   "mimetype": "text/x-python",
   "name": "python",
   "nbconvert_exporter": "python",
   "pygments_lexer": "ipython3",
   "version": "3.8.8"
  }
 },
 "nbformat": 4,
 "nbformat_minor": 5
}
